<?xml version="1.0" encoding="UTF-8"?>
<svg id="Layer_2" data-name="Layer 2" xmlns="http://www.w3.org/2000/svg" viewBox="0 0 193.55 229.2">
  <defs>
    <style>
      .cls-1 {
        fill: #4b0000;
        stroke-width: 0px;
      }
    </style>
  </defs>
  <g id="Layer_2-2" data-name="Layer 2-2">
    <g id="Layer_1-2" data-name="Layer 1-2">
      <path class="cls-1" d="m69.79,229.15c-12.79.06-24.13-4.06-34.45-11.47-9.24-6.63-17.15-14.69-25.03-22.78-3.04-3.12-6.13-6.19-9.16-9.32-1.49-1.53-1.56-1.21-.04-2.73,13.91-13.91,27.81-27.83,41.75-41.72.81-.81.98-1.28.2-2.3-4.69-6.14-7.86-13-9.55-20.56-.76-3.42-1.16-6.86-1.44-10.36-.26-3.25-.08-6.48.16-9.67.34-4.63,1.4-9.18,2.73-13.65,2.36-7.91,5.89-15.25,10.56-22.04,2.92-4.25,6.13-8.26,9.79-11.91C71.97,33.99,88.62,17.34,105.26.66c.79-.79,1.23-.95,2.05-.04,1.3,1.46,2.72,2.82,4.15,4.16.56.53.5.82-.02,1.32-1.39,1.32-2.73,2.7-4.08,4.06-15.1,15.1-30.21,30.18-45.29,45.31-6.47,6.49-11.96,13.7-15.76,22.1-2.28,5.04-3.82,10.3-5.01,15.69-1.07,4.83-1.14,9.73-.93,14.62.4,9.26,3.2,17.73,8.66,25.29.61.85.93.92,1.71.13,13.26-13.32,26.56-26.6,39.85-39.89,4.1-4.1,8.21-8.19,12.29-12.31.62-.63.98-.69,1.61-.01,1.34,1.43,2.75,2.79,4.15,4.16,1.8,1.76,3.62,3.5,5.42,5.26,4.05,3.97,8,8.05,11.93,12.14,5.83,6.07,10.91,12.71,14.89,20.15.55,1.02,1.01,2.08,1.49,3.13.25.55.53.66.95.17.18-.21.39-.4.59-.59,9.14-9.13,18.22-18.31,27.43-27.37,5.35-5.27,10.7-10.55,16-15.88.65-.65,1.01-.63,1.61.02,1.31,1.4,2.66,2.77,4.07,4.07.76.7.67,1.14-.03,1.83-3.99,3.93-7.93,7.9-11.89,11.86-11.59,11.59-23.18,23.19-34.79,34.77-.65.64-.88,1.19-.71,2.18.84,4.83,1.28,9.72,1,14.62-.52,9.16-2.77,17.89-6.56,26.26-3.12,6.88-7.06,13.25-11.79,19.11-3.59,4.44-7.54,8.55-11.88,12.29-4.45,3.85-9.15,7.33-14.22,10.3-5.85,3.42-12.02,6.08-18.53,7.99-3.27.96-6.6,1.32-9.99,1.44-1.27.04-2.54.26-3.8.18l-.04-.03Zm64.78-83.64c-.28.16-.42.23-.54.31-.2.13-.4.27-.59.41-6.42,4.77-13.39,8.52-20.94,11.17-5.88,2.06-11.91,3.39-18.14,3.91-4.15.35-8.29.31-12.41-.09-3.48-.33-6.89-1.12-10.25-2.11-6.71-1.97-12.79-5.16-18.21-9.56-.97-.79-1.39-.7-2.2.11-8.85,8.9-17.73,17.77-26.61,26.65-2.37,2.37-4.73,4.76-7.13,7.11-.6.59-.59.98,0,1.57,1.3,1.29,2.52,2.67,3.8,3.98,5.9,6.07,11.97,11.94,18.71,17.11,5.81,4.45,12.09,7.88,19.21,9.64,2.93.73,5.92,1.11,8.95,1.31,3.85.25,7.68.17,11.38-.74,6.04-1.49,11.65-4.12,16.98-7.31,8.27-4.94,15.36-11.25,21.53-18.63,6.31-7.55,11.2-15.89,14.07-25.35,1.91-6.31,2.62-12.76,2.37-19.5h.02Z"/>
    </g>
  </g>
</svg>